<svg width="19" height="20" viewBox="0 0 19 20" fill="none" xmlns="http://www.w3.org/2000/svg">
<path d="M12.625 17.7916C12.6251 18.3172 12.4266 18.8234 12.0692 19.2088C11.7119 19.5942 11.222 19.8303 10.6979 19.8697L10.5416 19.8749H8.4583C7.9327 19.8751 7.42646 19.6766 7.04106 19.3192C6.65566 18.9618 6.41959 18.472 6.38017 17.9478L6.37496 17.7916H12.625ZM9.49996 0.083252C11.3906 0.0832208 13.2073 0.817516 14.5669 2.13125C15.9265 3.44498 16.7226 5.23543 16.7875 7.12492L16.7916 7.37492V11.2958L18.6895 15.0916C18.7724 15.2572 18.8138 15.4404 18.8104 15.6256C18.8069 15.8107 18.7586 15.9923 18.6696 16.1547C18.5806 16.3171 18.4536 16.4555 18.2994 16.5581C18.1452 16.6607 17.9685 16.7243 17.7843 16.7437L17.6645 16.7499H1.33538C1.15014 16.75 0.967638 16.7051 0.803528 16.6192C0.639418 16.5333 0.498588 16.4088 0.393107 16.2565C0.287626 16.1043 0.220639 15.9287 0.197885 15.7448C0.175132 15.561 0.197291 15.3744 0.262464 15.201L0.310381 15.0916L2.2083 11.2958V7.37492C2.2083 5.44105 2.97652 3.58638 4.34398 2.21893C5.71143 0.851479 7.56609 0.083252 9.49996 0.083252Z" fill="#FBFDFF"/>
</svg>
