<svg width="28" height="27" viewBox="0 0 28 27" fill="none" xmlns="http://www.w3.org/2000/svg">
<g style="mix-blend-mode:overlay" filter="url(#filter0_d_2179_506)">
<path d="M9.16402 7.95176C11.8922 5.17545 16.3003 5.16206 19.046 7.90712L17.2389 9.74163C16.9362 10.0496 16.8485 10.5094 17.0108 10.9111C17.1731 11.3128 17.5591 11.5717 17.9845 11.5717H23.226H23.5988C24.1821 11.5717 24.6515 11.0941 24.6515 10.5004V4.78712C24.6515 4.35416 24.3971 3.96137 24.0023 3.79622C23.6076 3.63107 23.1558 3.72034 22.8531 4.02832L21.0285 5.88515C17.1863 2.0242 10.9974 2.03759 7.17711 5.92978C6.10689 7.01888 5.33493 8.29991 4.86123 9.67021C4.60245 10.4156 4.98843 11.228 5.71652 11.4913C6.44462 11.7547 7.24728 11.3619 7.50607 10.6209C7.8438 9.6479 8.39206 8.73287 9.16402 7.95176ZM3.59802 15.4996V15.8388V15.87V21.2129C3.59802 21.6458 3.85242 22.0386 4.24717 22.2038C4.64192 22.3689 5.09369 22.2797 5.39634 21.9717L7.22097 20.1149C11.0632 23.9758 17.2521 23.9624 21.0724 20.0702C22.1426 18.9811 22.9189 17.7001 23.3926 16.3343C23.6514 15.5888 23.2654 14.7765 22.5373 14.5131C21.8092 14.2498 21.0066 14.6426 20.7478 15.3835C20.4101 16.3566 19.8618 17.2716 19.0898 18.0527C16.3617 20.829 11.9536 20.8424 9.20789 18.0973L11.0106 16.2584C11.3132 15.9504 11.401 15.4906 11.2387 15.0889C11.0764 14.6872 10.6904 14.4283 10.2649 14.4283H5.01913H4.98843H4.65069C4.06734 14.4283 3.59802 14.9059 3.59802 15.4996Z" fill="white"/>
</g>
<defs>
<filter id="filter0_d_2179_506" x="0.598022" y="0.8" width="27.0535" height="26" filterUnits="userSpaceOnUse" color-interpolation-filters="sRGB">
<feFlood flood-opacity="0" result="BackgroundImageFix"/>
<feColorMatrix in="SourceAlpha" type="matrix" values="0 0 0 0 0 0 0 0 0 0 0 0 0 0 0 0 0 0 127 0" result="hardAlpha"/>
<feOffset dy="0.8"/>
<feGaussianBlur stdDeviation="1.5"/>
<feComposite in2="hardAlpha" operator="out"/>
<feColorMatrix type="matrix" values="0 0 0 0 0 0 0 0 0 0 0 0 0 0 0 0 0 0 0.25 0"/>
<feBlend mode="normal" in2="BackgroundImageFix" result="effect1_dropShadow_2179_506"/>
<feBlend mode="normal" in="SourceGraphic" in2="effect1_dropShadow_2179_506" result="shape"/>
</filter>
</defs>
</svg>
