<svg width="34" height="43" viewBox="0 0 34 43" fill="none" xmlns="http://www.w3.org/2000/svg">
<path d="M21.1875 2.875V11.3472C21.1875 11.909 21.4107 12.4477 21.8079 12.8449C22.2051 13.2421 22.7438 13.4653 23.3056 13.4653H31.7778" stroke="white" stroke-width="4" stroke-linecap="round" stroke-linejoin="round"/>
<path d="M27.5417 41H6.36111C5.23762 41 4.16015 40.5537 3.36573 39.7593C2.5713 38.9648 2.125 37.8874 2.125 36.7639V7.11111C2.125 5.98762 2.5713 4.91015 3.36573 4.11573C4.16015 3.3213 5.23762 2.875 6.36111 2.875H21.1875L31.7778 13.4653V36.7639C31.7778 37.8874 31.3315 38.9648 30.537 39.7593C29.7426 40.5537 28.6652 41 27.5417 41Z" stroke="white" stroke-width="4" stroke-linecap="round" stroke-linejoin="round"/>
<path d="M16.5479 19.9203L16.5479 29.6028" stroke="white" stroke-width="3" stroke-linecap="round"/>
<path d="M11.7068 24.7616H21.3893" stroke="white" stroke-width="3" stroke-linecap="round"/>
</svg>
