<svg width="12" height="12" viewBox="0 0 12 12" fill="none" xmlns="http://www.w3.org/2000/svg">
<circle cx="6" cy="6" r="5.5" stroke="#455A64"/>
<path d="M6.57094 5.13356L5.16571 5.30967L5.1154 5.54285L5.39153 5.59378C5.57194 5.63674 5.60753 5.70178 5.56826 5.88158L5.1154 8.00967C4.99635 8.5601 5.17983 8.81906 5.61121 8.81906C5.94565 8.81906 6.33408 8.66442 6.51019 8.4521L6.56419 8.19683C6.44146 8.30483 6.26228 8.34778 6.14324 8.34778C5.97449 8.34778 5.91312 8.22935 5.95669 8.02072L6.57094 5.13356ZM6.6139 3.85228C6.6139 4.01503 6.54924 4.17111 6.43417 4.28619C6.31909 4.40127 6.16301 4.46592 6.00026 4.46592C5.83751 4.46592 5.68143 4.40127 5.56635 4.28619C5.45127 4.17111 5.38662 4.01503 5.38662 3.85228C5.38662 3.68954 5.45127 3.53346 5.56635 3.41838C5.68143 3.3033 5.83751 3.23865 6.00026 3.23865C6.16301 3.23865 6.31909 3.3033 6.43417 3.41838C6.54924 3.53346 6.6139 3.68954 6.6139 3.85228Z" fill="#455A64"/>
</svg>
