<svg width="9" height="10" viewBox="0 0 9 10" fill="none" xmlns="http://www.w3.org/2000/svg">
<path d="M4.76541 0.23871C4.58379 0.156433 4.38547 0.11771 4.18624 0.125627C3.98701 0.133544 3.79239 0.187881 3.61787 0.284311C3.44336 0.38074 3.29378 0.516595 3.18104 0.681051C3.06831 0.845508 2.99555 1.03402 2.96855 1.23157L2.59823 3.94741L1.01602 5.38935C0.963751 5.43693 0.924117 5.49675 0.900677 5.56343C0.877238 5.63011 0.870726 5.70157 0.881728 5.77138C0.89273 5.8412 0.9209 5.9072 0.963709 5.96344C1.00652 6.01968 1.06262 6.06441 1.12699 6.09361L2.93791 6.91402L1.86894 9.27359L2.00831 9.99999L2.6463 9.62577L3.71527 7.26619L5.52509 8.0861C5.58943 8.11528 5.66002 8.12802 5.73051 8.12319C5.801 8.11835 5.86918 8.0961 5.92895 8.05841C5.98871 8.02073 6.03819 7.96879 6.07293 7.90727C6.10767 7.84575 6.1266 7.77656 6.12801 7.70592L6.17207 5.56252L7.96669 3.49524C8.09739 3.34467 8.19113 3.16566 8.24043 2.97247C8.28973 2.77927 8.29322 2.57723 8.25064 2.38245C8.20805 2.18767 8.12056 2.00552 7.99514 1.85053C7.86971 1.69553 7.70982 1.57197 7.52821 1.48969L4.76541 0.23871Z" fill="#06C018"/>
</svg>
